<svg width="53" height="337" viewBox="0 0 53 337" fill="none" xmlns="http://www.w3.org/2000/svg">
<path opacity="0.05" d="M2.98633 306.957L51.3164 289.73L52 289.73L52 300.326L41.7119 303.676L41.7119 322.85L52 326.2L52 336.283L51.3164 336.283L2.98633 319.125L2.98633 306.957ZM33.2354 320.048L33.2354 306.478L12.7959 313.109L12.7959 313.417L33.2354 320.048ZM52.6152 265.582C52.6152 269.934 51.0999 273.283 48.0693 275.63L48.0693 275.938L52 276.895L52 285.303L0.183591 285.303L0.183591 275.938L19.5293 275.938L19.5293 275.63C16.4987 273.283 14.9834 269.934 14.9834 265.582C14.9834 260.956 16.7266 257.31 20.2129 254.644C23.6992 251.978 28.2337 250.645 33.8164 250.645C39.4902 250.645 44.0361 251.978 47.4541 254.644C50.8949 257.401 52.6152 261.047 52.6152 265.582ZM41.3701 274.332C43.3753 273.01 44.3779 270.971 44.3779 268.213C44.3779 265.456 43.3981 263.406 41.4385 262.061C39.5016 260.808 36.9609 260.181 33.8164 260.181C30.6035 260.181 28.0286 260.808 26.0918 262.061C24.1777 263.428 23.2207 265.479 23.2207 268.213C23.2207 271.016 24.2005 273.056 26.1602 274.332C28.0514 275.63 30.6035 276.28 33.8164 276.28C36.9609 276.28 39.4788 275.63 41.3701 274.332ZM52.6152 229.163C52.6152 234.859 50.8949 239.223 47.4541 242.253C44.0361 245.33 39.513 246.868 33.8848 246.868C28.2565 246.868 23.6992 245.33 20.2129 242.253C16.7266 239.177 14.9834 234.814 14.9834 229.163C14.9834 223.557 16.7266 219.216 20.2129 216.14C23.6992 213.064 28.2565 211.526 33.8848 211.526C39.4447 211.526 43.945 213.041 47.3857 216.072C50.8721 219.148 52.6152 223.511 52.6152 229.163ZM44.3779 229.163C44.3779 223.762 40.8802 221.062 33.8848 221.062C26.7754 221.062 23.2207 223.762 23.2207 229.163C23.2207 234.586 26.7754 237.297 33.8848 237.297C40.8802 237.297 44.3779 234.586 44.3779 229.163ZM15.5986 182.934L15.5986 173.569L37.8496 173.569C42.0423 173.569 45.5514 174.947 48.3769 177.704C51.2025 180.393 52.6152 184.381 52.6152 189.667L52.6152 189.736C52.6152 195.022 51.2025 199.01 48.3769 201.698C45.5514 204.456 42.0423 205.834 37.8496 205.834L15.5986 205.834L15.5986 196.469L36.3799 196.469C41.3701 196.469 43.8652 194.202 43.8652 189.667C43.8652 185.178 41.3701 182.934 36.3799 182.934L15.5986 182.934ZM52.6152 150.958C52.6152 154.832 51.6126 157.703 49.6074 159.571C47.6706 161.44 44.9932 162.374 41.5752 162.374L23.5967 162.374L23.5967 168.321L15.5986 168.321L15.5986 161.998L7.97655 161.998L5.99413 153.692L5.99413 152.975L15.5986 152.975L15.5986 144.225L23.5967 144.225L23.5967 152.975L39.5244 152.975C41.2562 152.975 42.498 152.599 43.25 151.847C44.0475 151.049 44.4463 149.864 44.4463 148.292C44.4463 147.244 44.2526 146.082 43.8652 144.806L43.8652 144.088L51.7266 144.088C52.319 145.956 52.6152 148.246 52.6152 150.958ZM52.6152 100.268C52.6152 106.489 51.0999 111.32 48.0693 114.76C44.9932 118.247 40.9144 120.092 35.833 120.297L35.833 110.556C38.5446 110.351 40.5954 109.349 41.9853 107.548C43.3981 105.794 44.1045 103.367 44.1045 100.268C44.1045 93.6373 42.0879 90.3219 38.0547 90.3219C36.4368 90.3219 35.1608 90.8574 34.2266 91.9283C33.2467 93.0677 32.5176 94.7766 32.0391 97.0553L30.501 104.199C29.5211 108.824 27.9375 112.391 25.75 114.897C23.6081 117.426 20.4294 118.691 16.2139 118.691C12.1351 118.691 8.78547 117.005 6.16503 113.632C3.63573 110.351 2.37108 105.874 2.37108 100.2C2.37108 94.7311 3.81802 90.208 6.7119 86.6305C9.583 83.1441 13.32 81.3668 17.9228 81.2984L17.9228 91.0397C15.8721 91.1764 14.1859 92.0081 12.8642 93.5348C11.611 95.0615 10.9844 97.3287 10.9844 100.337C10.9844 103.116 11.4515 105.213 12.3857 106.626C13.3655 108.084 14.6416 108.813 16.2139 108.813C17.5127 108.813 18.6178 108.323 19.5293 107.343C20.4407 106.432 21.1357 104.814 21.6142 102.49L23.0156 95.859C24.0866 90.8915 25.75 87.0862 28.0058 84.443C30.3301 81.777 33.6113 80.444 37.8496 80.444C42.4525 80.444 46.0527 82.0846 48.6504 85.3658C51.2936 88.6243 52.6152 93.5917 52.6152 100.268ZM52 62.892L11.668 62.892L11.668 77.3158L2.98632 77.3158L2.98632 38.8295L11.668 38.8295L11.668 53.2191L52 53.2191L52 62.892ZM52 32.5227L2.98631 32.5227L2.98631 22.9524L43.3867 22.9524L43.3867 0.325406L52 0.325406L52 32.5227Z" fill="#33363B"/>
</svg>
