<svg width="54" height="522" viewBox="0 0 54 522" fill="none" xmlns="http://www.w3.org/2000/svg">
<path opacity="0.05" d="M53.0533 521.644L4.03967 521.644L4.03967 511.014L28.6149 496.453L28.6149 496.18L4.03967 481.619L4.03967 471.126L53.0533 471.126L53.0533 480.355L19.2496 480.355L19.2496 480.628L44.8502 496.043L44.8502 496.727L19.0446 512.142L19.0446 512.415L53.0533 512.415L53.0533 521.644ZM12.1061 456.24C12.1061 458.177 11.5934 459.624 10.568 460.581C9.58817 461.561 8.18681 462.051 6.36389 462.051C4.6549 462.051 3.27632 461.561 2.22815 460.581C1.24833 459.601 0.75842 458.154 0.75842 456.24C0.75842 454.44 1.24833 453.016 2.22815 451.968C3.25354 450.942 4.63212 450.43 6.36389 450.43C8.20959 450.43 9.61096 450.942 10.568 451.968C11.5934 452.993 12.1061 454.417 12.1061 456.24ZM53.0533 460.991L16.652 460.991L16.652 451.626L53.0533 451.626L53.0533 460.991ZM53.6686 430.622C53.6686 435.749 52.5065 439.645 50.1822 442.311C47.858 444.977 44.7363 446.345 40.817 446.413L40.817 437.048C42.2753 437.048 43.4602 436.489 44.3717 435.373C45.3059 434.234 45.7731 432.65 45.7731 430.622C45.7731 428.776 45.4427 427.284 44.7819 426.144C44.1666 425.096 43.3805 424.572 42.4235 424.572C40.6233 424.572 39.4498 425.973 38.9029 428.776L37.8092 434.655C36.4648 441.764 32.7734 445.319 26.735 445.319C23.636 445.319 21.0725 444.009 19.0446 441.388C17.0393 438.814 16.0367 435.293 16.0367 430.827C16.0367 426.338 17.1533 422.738 19.3863 420.026C21.665 417.337 24.5817 415.993 28.1363 415.993L28.1363 425.221C26.8147 425.221 25.6982 425.711 24.7867 426.691C23.9436 427.739 23.5221 429.164 23.5221 430.964C23.5221 432.581 23.8183 433.835 24.4108 434.723C25.026 435.658 25.8235 436.125 26.8033 436.125C28.5123 436.125 29.6061 434.894 30.0846 432.433L31.2809 425.768C31.8961 422.464 33.0582 419.855 34.7672 417.941C36.4306 416.073 38.9599 415.138 42.3551 415.138C45.8642 415.138 48.6328 416.585 50.6608 419.479C52.666 422.328 53.6686 426.042 53.6686 430.622ZM53.6686 395.57C53.6686 400.697 52.5065 404.593 50.1822 407.259C47.858 409.925 44.7363 411.293 40.817 411.361L40.817 401.996C42.2753 401.996 43.4602 401.437 44.3717 400.321C45.3059 399.182 45.7731 397.598 45.7731 395.57C45.7731 393.724 45.4427 392.232 44.7819 391.092C44.1666 390.044 43.3805 389.52 42.4235 389.52C40.6233 389.52 39.4498 390.921 38.9029 393.724L37.8092 399.603C36.4648 406.712 32.7734 410.267 26.735 410.267C23.636 410.267 21.0725 408.957 19.0446 406.337C17.0393 403.762 16.0367 400.241 16.0367 395.775C16.0367 391.286 17.1533 387.686 19.3863 384.974C21.665 382.285 24.5817 380.941 28.1363 380.941L28.1363 390.17C26.8147 390.17 25.6982 390.659 24.7867 391.639C23.9436 392.687 23.5221 394.112 23.5221 395.912C23.5221 397.53 23.8183 398.783 24.4108 399.671C25.026 400.606 25.8235 401.073 26.8033 401.073C28.5123 401.073 29.6061 399.842 30.0846 397.381L31.2809 390.716C31.8961 387.412 33.0582 384.803 34.7672 382.889C36.4306 381.021 38.9599 380.087 42.3551 380.087C45.8642 380.087 48.6328 381.533 50.6608 384.427C52.666 387.276 53.6686 390.99 53.6686 395.57ZM12.1061 369.541C12.1061 371.478 11.5934 372.925 10.568 373.882C9.58817 374.862 8.1868 375.352 6.36388 375.352C4.6549 375.352 3.27632 374.862 2.22814 373.882C1.24832 372.902 0.758416 371.455 0.758416 369.541C0.758416 367.741 1.24832 366.317 2.22814 365.269C3.25353 364.244 4.63211 363.731 6.36388 363.731C8.20959 363.731 9.61095 364.244 10.568 365.269C11.5934 366.294 12.1061 367.718 12.1061 369.541ZM53.0533 374.292L16.652 374.292L16.652 364.927L53.0533 364.927L53.0533 374.292ZM53.6686 342.009C53.6686 347.706 51.9482 352.069 48.5074 355.1C45.0895 358.176 40.5664 359.714 34.9381 359.714C29.3098 359.714 24.7526 358.176 21.2662 355.1C17.7799 352.024 16.0367 347.66 16.0367 342.009C16.0367 336.404 17.7799 332.063 21.2662 328.987C24.7526 325.91 29.3098 324.372 34.9381 324.372C40.498 324.372 44.9983 325.888 48.4391 328.918C51.9254 331.994 53.6686 336.358 53.6686 342.009ZM45.4313 342.009C45.4313 336.609 41.9335 333.908 34.9381 333.908C27.8287 333.908 24.274 336.609 24.274 342.009C24.274 347.432 27.8287 350.144 34.9381 350.144C41.9335 350.144 45.4313 347.432 45.4313 342.009ZM53.0533 318.544L16.652 318.544L16.652 310.136L20.7877 309.452L20.7877 309.179C17.6204 306.763 16.0367 303.311 16.0367 298.822C16.0367 294.766 17.1988 291.542 19.5231 289.149C21.9156 286.757 25.1399 285.561 29.1959 285.561L53.0533 285.561L53.0533 294.96L31.8277 294.96C26.9742 294.96 24.5475 297.204 24.5475 301.693C24.5475 303.904 25.2994 305.692 26.8033 307.06C28.2845 308.472 30.3124 309.179 32.8873 309.179L53.0533 309.179L53.0533 318.544ZM25.1969 214.67L25.8805 214.67C32.762 217.45 38.4358 220.504 42.902 223.831L52.3697 215.149L53.0533 215.149L53.0533 226.428L49.1227 229.983C52.1533 233.948 53.6686 238.38 53.6686 243.279C53.6686 247.882 52.4381 251.755 49.9772 254.9C47.4934 258.136 44.0413 259.754 39.6207 259.754C36.7496 259.754 34.2773 258.956 32.2037 257.361C30.1302 255.789 28.1933 253.499 26.3932 250.491C24.388 252.291 22.5878 253.578 20.9928 254.353C19.3522 255.151 17.5976 255.549 15.7291 255.549C12.3567 255.549 9.44005 254.285 6.97911 251.755C4.60932 249.249 3.42443 245.979 3.42443 241.946L3.42443 241.809C3.42443 237.525 4.56375 234.142 6.84239 231.658C9.14383 229.151 12.0149 227.898 15.4557 227.898C17.8938 227.898 20.1155 228.661 22.1207 230.188C24.1715 231.829 26.1539 234.255 28.068 237.468L36.4762 229.778C33.2861 227.682 29.5263 225.813 25.1969 224.172L25.1969 214.67ZM11.3199 242.014C11.3883 243.381 11.8326 244.441 12.6529 245.193C13.4733 246.013 14.4986 246.423 15.7291 246.423C17.666 246.423 19.7281 245.33 21.9156 243.142L22.1891 242.869C21.027 240.818 19.956 239.348 18.9762 238.46C18.0647 237.616 17.0052 237.195 15.7975 237.195C14.5214 237.195 13.4505 237.594 12.5846 238.391C11.7415 239.234 11.3199 240.396 11.3199 241.878L11.3199 242.014ZM45.2262 243.279C45.2262 240.613 44.4059 238.095 42.7652 235.725L32.4088 245.022C33.6621 246.982 34.8014 248.292 35.8268 248.953C36.8294 249.705 38.094 250.081 39.6207 250.081C41.2386 250.081 42.5716 249.454 43.6197 248.201C44.6907 246.925 45.2262 245.284 45.2262 243.279ZM53.0533 174.713L4.75743 192.35L4.03966 192.35L4.03966 181.583L41.3639 169.313L41.3639 169.039L4.03966 156.94L4.03966 146.002L4.75743 146.002L53.0533 163.502L53.0533 174.713ZM12.1061 136.551C12.1061 138.488 11.5934 139.935 10.568 140.892C9.58816 141.871 8.18679 142.361 6.36387 142.361C4.65489 142.361 3.27631 141.871 2.22813 140.892C1.24831 139.912 0.758406 138.465 0.758406 136.551C0.758406 134.751 1.24831 133.326 2.22813 132.278C3.25352 131.253 4.6321 130.74 6.36387 130.74C8.20958 130.74 9.61094 131.253 10.568 132.278C11.5934 133.304 12.1061 134.728 12.1061 136.551ZM53.0533 141.302L16.652 141.302L16.652 131.937L53.0533 131.937L53.0533 141.302ZM53.6686 110.932C53.6686 116.059 52.5065 119.956 50.1822 122.622C47.858 125.288 44.7363 126.655 40.817 126.723L40.817 117.358C42.2753 117.358 43.4602 116.8 44.3717 115.683C45.3059 114.544 45.7731 112.96 45.7731 110.932C45.7731 109.087 45.4426 107.594 44.7818 106.455C44.1666 105.407 43.3805 104.883 42.4234 104.883C40.6233 104.883 39.4498 106.284 38.9029 109.087L37.8092 114.966C36.4648 122.075 32.7734 125.63 26.735 125.63C23.636 125.63 21.0725 124.319 19.0445 121.699C17.0393 119.124 16.0367 115.604 16.0367 111.137C16.0367 106.649 17.1533 103.048 19.3863 100.337C21.665 97.6479 24.5816 96.3035 28.1363 96.3035L28.1363 105.532C26.8147 105.532 25.6982 106.022 24.7867 107.002C23.9436 108.05 23.5221 109.474 23.5221 111.274C23.5221 112.892 23.8183 114.145 24.4107 115.034C25.026 115.968 25.8235 116.435 26.8033 116.435C28.5123 116.435 29.6061 115.205 30.0846 112.744L31.2809 106.079C31.8961 102.775 33.0582 100.166 34.7672 98.2517C36.4306 96.3832 38.9599 95.449 42.3551 95.449C45.8642 95.449 48.6328 96.8959 50.6607 99.7898C52.666 102.638 53.6686 106.352 53.6686 110.932ZM12.1061 84.9039C12.1061 86.8407 11.5934 88.2877 10.568 89.2447C9.58816 90.2245 8.18679 90.7144 6.36387 90.7144C4.65489 90.7144 3.27631 90.2245 2.22813 89.2447C1.24831 88.2649 0.758404 86.818 0.758403 84.9039C0.758403 83.1038 1.24831 81.6796 2.22813 80.6314C3.25352 79.606 4.6321 79.0934 6.36387 79.0934C8.20958 79.0934 9.61094 79.606 10.568 80.6314C11.5934 81.6568 12.1061 83.081 12.1061 84.9039ZM53.0533 89.6549L16.652 89.6549L16.652 80.2896L53.0533 80.2896L53.0533 89.6549ZM53.6686 57.3715C53.6686 63.0681 51.9482 67.4317 48.5074 70.4623C45.0895 73.5384 40.5663 75.0765 34.9381 75.0765C29.3098 75.0765 24.7525 73.5385 21.2662 70.4623C17.7799 67.3861 16.0367 63.0225 16.0367 57.3715C16.0367 51.766 17.7799 47.4252 21.2662 44.349C24.7525 41.2728 29.3098 39.7347 34.9381 39.7347C40.498 39.7347 44.9983 41.25 48.4391 44.2806C51.9254 47.3568 53.6686 51.7204 53.6686 57.3715ZM45.4313 57.3715C45.4313 51.9711 41.9335 49.2709 34.9381 49.2709C27.8287 49.2709 24.274 51.9711 24.274 57.3715C24.274 62.7946 27.8287 65.5062 34.9381 65.5062C41.9335 65.5062 45.4313 62.7946 45.4313 57.3715ZM53.0533 33.9064L16.652 33.9064L16.652 25.4982L20.7877 24.8146L20.7877 24.5412C17.6204 22.1258 16.0367 18.6737 16.0367 14.1848C16.0367 10.1288 17.1988 6.90448 19.523 4.5119C21.9156 2.11932 25.1399 0.923033 29.1959 0.923033L53.0533 0.923032L53.0533 10.3224L31.8277 10.3224C26.9742 10.3224 24.5475 12.5669 24.5475 17.0558C24.5475 19.2661 25.2994 21.0549 26.8033 22.4221C28.2844 23.8348 30.3124 24.5412 32.8873 24.5412L53.0533 24.5412L53.0533 33.9064Z" fill="#33363B"/>
</svg>
