<svg width="407" height="54" viewBox="0 0 407 54" fill="none" xmlns="http://www.w3.org/2000/svg">
<path opacity="0.05" d="M40.4918 46.5742C36.4814 51.2682 30.7392 53.6152 23.2652 53.6152C15.7913 53.6152 10.0491 51.2682 6.03867 46.5742C2.07382 41.9258 0.0914001 35.8988 0.0914001 28.4932C0.0914001 21.0648 2.07382 15.0264 6.03867 10.3779C10.0263 5.70671 15.7685 3.37109 23.2652 3.37109C30.762 3.37109 36.5042 5.70671 40.4918 10.3779C44.4566 15.0264 46.4391 21.0648 46.4391 28.4932C46.4391 35.8988 44.4566 41.9258 40.4918 46.5742ZM13.2506 40.4561C15.5064 43.3955 18.8447 44.8652 23.2652 44.8652C27.6858 44.8652 31.024 43.3955 33.2799 40.4561C35.5129 37.6077 36.6295 33.6201 36.6295 28.4932C36.6295 23.389 35.5129 19.3786 33.2799 16.4619C31.0012 13.568 27.663 12.1211 23.2652 12.1211C18.8674 12.1211 15.5292 13.568 13.2506 16.4619C11.0175 19.3786 9.90097 23.389 9.90097 28.4932C9.90097 33.6201 11.0175 37.6077 13.2506 40.4561ZM75.5096 16.5986H84.8748L84.8748 38.8496C84.8748 43.0423 83.4962 46.5514 80.7391 49.377C78.0503 52.2025 74.0626 53.6152 68.7762 53.6152H68.7078C63.4213 53.6152 59.4337 52.2025 56.7449 49.377C53.9878 46.5514 52.6092 43.0423 52.6092 38.8496V16.5986H61.9744L61.9744 37.3799C61.9744 42.3701 64.2417 44.8652 68.7762 44.8652C73.2651 44.8652 75.5096 42.3701 75.5096 37.3799L75.5096 16.5986ZM92.583 53L92.583 16.5986L100.479 16.5986L101.196 22.1357H101.47C103.338 18.0798 106.494 16.0518 110.937 16.0518H113.569V24.7334H110.288C107.485 24.7334 105.321 25.6335 103.794 27.4336C102.244 29.2565 101.47 31.8314 101.47 35.1582V53H92.583ZM156.193 53.6152C149.972 53.6152 145.141 52.0999 141.701 49.0693C138.214 45.9932 136.369 41.9144 136.163 36.833H145.905C146.11 39.5446 147.112 41.5954 148.912 42.9854C150.667 44.3981 153.094 45.1045 156.193 45.1045C162.824 45.1045 166.139 43.0879 166.139 39.0547C166.139 37.4368 165.604 36.1608 164.533 35.2266C163.393 34.2467 161.684 33.5176 159.406 33.0391L152.262 31.501C147.636 30.5212 144.07 28.9375 141.564 26.75C139.035 24.6081 137.77 21.4294 137.77 17.2139C137.77 13.1351 139.456 9.78548 142.829 7.16504C146.11 4.63574 150.587 3.37109 156.261 3.37109C161.73 3.37109 166.253 4.81803 169.83 7.71191C173.317 10.583 175.094 14.32 175.162 18.9229H165.421C165.285 16.8721 164.453 15.1859 162.926 13.8643C161.399 12.611 159.132 11.9844 156.124 11.9844C153.344 11.9844 151.248 12.4515 149.835 13.3857C148.377 14.3656 147.648 15.6416 147.648 17.2139C147.648 18.5127 148.138 19.6178 149.118 20.5293C150.029 21.4408 151.647 22.1357 153.971 22.6143L160.602 24.0156C165.569 25.0866 169.375 26.75 172.018 29.0059C174.684 31.3301 176.017 34.6113 176.017 38.8496C176.017 43.4525 174.376 47.0527 171.095 49.6504C167.837 52.2936 162.869 53.6152 156.193 53.6152ZM197.5 53.6152C192.031 53.6152 187.736 51.8493 184.614 48.3174C181.492 44.8538 179.931 40.3763 179.931 34.8848C179.931 29.3932 181.447 24.8587 184.477 21.2813C187.462 17.7493 191.746 15.9834 197.329 15.9834C202.638 15.9834 206.796 17.6582 209.804 21.0078C212.789 24.3346 214.282 28.5843 214.282 33.7568V37.3799L189.502 37.3799C189.57 40.0231 190.276 42.0853 191.621 43.5664C192.942 45.0931 194.902 45.8564 197.5 45.8564C201.328 45.8564 203.698 44.4551 204.609 41.6523H213.803C213.325 45.0247 211.616 47.873 208.676 50.1973C205.805 52.4759 202.08 53.6152 197.5 53.6152ZM189.57 31.1592L204.712 31.1592C204.643 28.9945 203.982 27.2171 202.729 25.8271C201.453 24.4827 199.653 23.8105 197.329 23.8105C194.845 23.8105 192.965 24.4827 191.689 25.8271C190.345 27.1715 189.638 28.9489 189.57 31.1592ZM220.076 53V16.5986H227.971L228.689 22.1357H228.963C230.831 18.0798 233.987 16.0518 238.43 16.0518H241.062V24.7334L237.781 24.7334C234.978 24.7334 232.814 25.6335 231.287 27.4336C229.737 29.2565 228.963 31.8314 228.963 35.1582V53H220.076ZM256.563 53L244.259 17.3164V16.5986L253.897 16.5986L262.306 43.7715H262.579L270.782 16.5986L280.284 16.5986V17.3164L268.116 53H256.563ZM289.53 12.0527C287.594 12.0527 286.147 11.54 285.19 10.5146C284.21 9.53483 283.72 8.13346 283.72 6.31055C283.72 4.60156 284.21 3.22298 285.19 2.1748C286.169 1.19499 287.616 0.705078 289.53 0.705078C291.331 0.705078 292.755 1.19499 293.803 2.1748C294.828 3.2002 295.341 4.57878 295.341 6.31055C295.341 8.15625 294.828 9.55762 293.803 10.5146C292.778 11.54 291.353 12.0527 289.53 12.0527ZM284.779 53V16.5986H294.145V53H284.779ZM317.131 53.6152C311.571 53.6152 307.208 51.8949 304.04 48.4541C300.919 45.0589 299.358 40.513 299.358 34.8164C299.358 29.0742 300.896 24.4941 303.972 21.0762C307.025 17.681 311.343 15.9834 316.926 15.9834C321.985 15.9834 325.904 17.305 328.684 19.9482C331.441 22.7054 332.956 26.2145 333.23 30.4756L323.762 30.4756C323.557 28.6071 322.862 27.0804 321.677 25.8955C320.492 24.779 318.909 24.2207 316.926 24.2207C311.594 24.2207 308.928 27.7526 308.928 34.8164C308.928 41.8574 311.594 45.3779 316.926 45.3779C318.954 45.3779 320.561 44.8197 321.746 43.7031C322.93 42.6549 323.625 41.1852 323.83 39.2939L333.298 39.2939C333.025 43.5778 331.51 47.0299 328.752 49.6504C325.972 52.2936 322.099 53.6152 317.131 53.6152ZM354.644 53.6152C349.175 53.6152 344.88 51.8493 341.758 48.3174C338.637 44.8538 337.076 40.3763 337.076 34.8848C337.076 29.3932 338.591 24.8587 341.622 21.2813C344.607 17.7493 348.891 15.9834 354.473 15.9834C359.782 15.9834 363.941 17.6582 366.949 21.0078C369.934 24.3346 371.426 28.5843 371.426 33.7568V37.3799H346.646C346.714 40.0231 347.421 42.0853 348.765 43.5664C350.087 45.0931 352.046 45.8564 354.644 45.8564C358.472 45.8564 360.842 44.4551 361.754 41.6523H370.948C370.469 45.0247 368.76 47.873 365.821 50.1973C362.95 52.4759 359.224 53.6152 354.644 53.6152ZM346.714 31.1592H361.856C361.788 28.9945 361.127 27.2171 359.874 25.8271C358.598 24.4827 356.797 23.8105 354.473 23.8105C351.99 23.8105 350.11 24.4827 348.834 25.8271C347.489 27.1715 346.783 28.9489 346.714 31.1592ZM390.995 53.6152C385.868 53.6152 381.971 52.4531 379.305 50.1289C376.639 47.8047 375.272 44.6829 375.204 40.7637H384.569C384.569 42.222 385.127 43.4069 386.244 44.3184C387.383 45.2526 388.967 45.7197 390.995 45.7197C392.841 45.7197 394.333 45.3893 395.472 44.7285C396.521 44.1133 397.045 43.3271 397.045 42.3701C397.045 40.57 395.643 39.3965 392.841 38.8496L386.962 37.7559C379.852 36.4115 376.298 32.7201 376.298 26.6816C376.298 23.5827 377.608 21.0192 380.228 18.9912C382.803 16.986 386.324 15.9834 390.79 15.9834C395.279 15.9834 398.879 17.0999 401.591 19.333C404.279 21.6117 405.624 24.5283 405.624 28.083H396.395C396.395 26.7614 395.905 25.6449 394.926 24.7334C393.877 23.8903 392.453 23.4688 390.653 23.4688C389.035 23.4688 387.782 23.765 386.893 24.3574C385.959 24.9727 385.492 25.7702 385.492 26.75C385.492 28.459 386.722 29.5527 389.183 30.0313L395.848 31.2275C399.152 31.8428 401.762 33.0049 403.676 34.7139C405.544 36.3773 406.478 38.9066 406.478 42.3018C406.478 45.8109 405.031 48.5794 402.137 50.6074C399.289 52.6126 395.575 53.6152 390.995 53.6152Z" fill="#33363B"/>
</svg>
