<svg width="69" height="274" viewBox="0 0 69 274" fill="none" xmlns="http://www.w3.org/2000/svg">
<path opacity="0.05" d="M45.5742 233.093C50.2682 237.104 52.6152 242.846 52.6152 250.32C52.6152 257.794 50.2682 263.536 45.5742 267.546C40.9258 271.511 34.8988 273.494 27.4932 273.494C20.0648 273.494 14.0264 271.511 9.37793 267.546C4.70671 263.559 2.37109 257.817 2.37109 250.32C2.37109 242.823 4.7067 237.081 9.37793 233.093C14.0264 229.129 20.0648 227.146 27.4932 227.146C34.8988 227.146 40.9258 229.129 45.5742 233.093ZM39.4561 260.335C42.3955 258.079 43.8652 254.74 43.8652 250.32C43.8652 245.899 42.3955 242.561 39.4561 240.305C36.6077 238.072 32.6201 236.956 27.4932 236.956C22.389 236.956 18.3786 238.072 15.4619 240.305C12.568 242.584 11.1211 245.922 11.1211 250.32C11.1211 254.718 12.568 258.056 15.4619 260.335C18.3786 262.568 22.389 263.684 27.4932 263.684C32.6201 263.684 36.6077 262.568 39.4561 260.335ZM15.5986 198.076L15.5986 188.71L37.8496 188.71C42.0423 188.71 45.5514 190.089 48.3769 192.846C51.2025 195.535 52.6152 199.523 52.6152 204.809L52.6152 204.877C52.6152 210.164 51.2025 214.151 48.377 216.84C45.5514 219.597 42.0423 220.976 37.8496 220.976L15.5986 220.976L15.5986 211.611L36.3799 211.611C41.3701 211.611 43.8652 209.343 43.8652 204.809C43.8652 200.32 41.3701 198.076 36.3799 198.076L15.5986 198.076ZM52 181.002L15.5986 181.002L15.5986 173.107L21.1357 172.389L21.1357 172.115C17.0797 170.247 15.0518 167.091 15.0518 162.648L15.0518 160.016L23.7334 160.016L23.7334 163.297C23.7334 166.1 24.6335 168.265 26.4336 169.791C28.2565 171.341 30.8314 172.115 34.1582 172.115L52 172.115L52 181.002ZM52 133.901L2.98632 133.901L2.98632 111.582C2.98632 107.207 4.11425 103.686 6.37011 101.02C8.69433 98.3543 11.8161 97.0213 15.7353 97.0213C20.4066 97.0213 23.7448 98.7189 25.75 102.114L26.0234 102.114C28.1654 97.5112 32.1074 95.2098 37.8496 95.2098C42.293 95.2098 45.7451 96.5769 48.206 99.3113C50.7353 102.114 52 105.942 52 110.796L52 133.901ZM22.5371 124.399L22.5371 113.12C22.5371 110.978 22.0244 109.394 20.999 108.369C19.9964 107.298 18.6178 106.762 16.8633 106.762C13.263 106.762 11.4629 108.813 11.4629 112.915L11.4629 124.399L22.5371 124.399ZM43.4551 124.399L43.4551 112.265C43.4551 109.804 42.874 107.993 41.7119 106.831C40.5498 105.6 39.0117 104.985 37.0976 104.985C35.2975 104.985 33.7822 105.6 32.5518 106.831C31.3669 108.016 30.7744 109.827 30.7744 112.265L30.7744 124.399L43.4551 124.399ZM52 89.2447L0.183586 89.2447L0.183585 79.8795L52 79.8795L52 89.2447ZM52.6152 56.9613C52.6152 62.6579 50.8948 67.0215 47.4541 70.0521C44.0361 73.1283 39.513 74.6664 33.8848 74.6664C28.2565 74.6664 23.6992 73.1283 20.2129 70.0521C16.7266 66.976 14.9834 62.6124 14.9834 56.9613C14.9834 51.3558 16.7266 47.015 20.2129 43.9389C23.6992 40.8627 28.2565 39.3246 33.8848 39.3246C39.4447 39.3246 43.945 40.8399 47.3857 43.8705C50.8721 46.9467 52.6152 51.3103 52.6152 56.9613ZM44.3779 56.9613C44.3779 51.5609 40.8802 48.8607 33.8848 48.8607C26.7754 48.8607 23.2207 51.5609 23.2207 56.9613C23.2207 62.3845 26.7754 65.0961 33.8848 65.0961C40.8802 65.0961 44.3779 62.3845 44.3779 56.9613ZM68.6455 18.2521C68.6455 23.1056 67.4378 26.9793 65.0225 29.8732C62.6299 32.881 59.4739 34.4191 55.5547 34.4875L55.5547 25.2931C57.0358 25.1564 58.2321 24.4614 59.1435 23.2082C60.1234 21.9549 60.6133 20.3029 60.6133 18.2521C60.6133 15.5861 59.9639 13.6037 58.665 12.3049C57.3662 10.9377 55.7028 10.2541 53.6748 10.2541L48.0693 10.2541L48.0693 10.5275C51.0999 12.8745 52.6152 16.2127 52.6152 20.5422C52.6152 25.2134 50.8721 28.882 47.3857 31.548C43.9222 34.1913 39.4219 35.5129 33.8848 35.5129C28.1426 35.5129 23.5625 34.1685 20.1445 31.4797C16.7038 28.7909 14.9834 25.145 14.9834 20.5422C14.9834 16.2127 16.4987 12.8745 19.5293 10.5275L19.5293 10.2541L15.5986 9.26288L15.5986 0.888854L53.8115 0.888852C58.2321 0.888852 61.8096 2.4953 64.5439 5.70819C67.2783 8.92108 68.6455 13.1024 68.6455 18.2521ZM44.3779 17.9445C44.3779 15.1874 43.3981 13.1366 41.4385 11.7922C39.57 10.5389 37.0521 9.91229 33.8848 9.91229C30.6946 9.91229 28.1198 10.5617 26.1601 11.8605C24.2005 13.2049 23.2207 15.2329 23.2207 17.9445C23.2207 20.6789 24.2005 22.7183 26.1601 24.0627C28.1198 25.3615 30.6947 26.0109 33.8848 26.0109C37.0976 26.0109 39.6155 25.3615 41.4385 24.0627C43.3981 22.7866 44.3779 20.7473 44.3779 17.9445Z" fill="#33363B"/>
</svg>
