<svg width="46" height="40" viewBox="0 0 46 40" fill="none" xmlns="http://www.w3.org/2000/svg">
<path d="M31.4985 35.1743C32.5565 34.7857 33.5627 34.2943 34.5057 33.7058L36.7847 36.7876C35.4315 37.6581 33.9672 38.3666 32.4185 38.8961L31.4985 35.1743ZM12.1306 28.6526L9.83058 32.0334C10.6375 33.0944 11.5632 34.0562 12.5637 34.94L14.6376 31.6849C13.685 30.7801 12.8397 29.763 12.1306 28.6526ZM9.87658 17.1424C11.2393 9.57689 17.8767 3.80942 25.875 3.80942C34.8584 3.80942 42.1667 11.0721 42.1667 19.9995C42.1667 24.4051 40.3803 28.4012 37.4977 31.323L39.7919 34.4219C43.6118 30.782 46 25.6717 46 19.9995C46 8.95595 36.9859 0 25.875 0C15.7397 0 7.38108 7.45504 5.98575 17.1424H0L7.66667 28.4126L15.3333 17.1424H9.87658ZM20.8878 35.3781C19.7723 35.0181 18.7048 34.561 17.71 33.982L15.6687 37.1876C16.9874 37.9666 18.3981 38.5952 19.8873 39.0599L20.8878 35.3781ZM27.7725 36.0714C26.1644 36.2562 25.7887 36.1971 24.6617 36.1114L23.6402 39.8675C25.4533 40.0675 26.8237 40.0428 28.6925 39.7818L27.7725 36.0714Z" fill="#19416C"/>
</svg>
