<svg width="69" height="284" viewBox="0 0 69 284" fill="none" xmlns="http://www.w3.org/2000/svg">
<path opacity="0.05" d="M52 272.4L3.7041 283.816L2.98633 283.816L2.98633 273.664L38.4307 266.384L38.4307 266.111L2.98633 257.429L2.98633 246.936L38.4307 238.118L38.4307 237.844L2.98633 230.564L2.98633 220.481L3.7041 220.481L52 231.965L52 243.86L17.6836 251.96L17.6836 252.268L52 260.505L52 272.4ZM52 215.815L0.183591 215.815L0.18359 206.449L19.7344 206.449L19.7344 206.142C16.5671 203.726 14.9834 200.297 14.9834 195.854C14.9834 191.843 16.1455 188.608 18.4697 186.147C20.8623 183.754 24.0866 182.558 28.1426 182.558L52 182.558L52 191.957L30.7744 191.957C25.9209 191.957 23.4941 194.213 23.4941 198.725C23.4941 200.912 24.2461 202.758 25.75 204.262C27.2767 205.72 29.3275 206.449 31.9023 206.449L52 206.449L52 215.815ZM68.0303 170.748L67.3467 170.748L51.9316 165.211L51.8633 166.544L16.3164 178.917L15.5986 178.917L15.5986 169.278L42.1904 160.87L42.1904 160.597L15.5986 151.915L15.5986 141.832L16.3164 141.832L68.0303 160.665L68.0303 170.748ZM52.6152 100.268C52.6152 106.489 51.0999 111.32 48.0693 114.76C44.9932 118.247 40.9144 120.092 35.833 120.297L35.833 110.556C38.5446 110.351 40.5954 109.349 41.9853 107.548C43.3981 105.794 44.1045 103.367 44.1045 100.268C44.1045 93.6373 42.0879 90.3219 38.0547 90.3219C36.4368 90.3219 35.1608 90.8574 34.2266 91.9283C33.2467 93.0677 32.5176 94.7766 32.0391 97.0553L30.501 104.199C29.5212 108.824 27.9375 112.391 25.75 114.897C23.6081 117.426 20.4294 118.691 16.2139 118.691C12.1351 118.691 8.78547 117.005 6.16503 113.632C3.63573 110.351 2.37109 105.874 2.37109 100.2C2.37109 94.7311 3.81803 90.208 6.71191 86.6305C9.583 83.1441 13.32 81.3668 17.9228 81.2984L17.9228 91.0397C15.8721 91.1764 14.1859 92.0081 12.8642 93.5348C11.611 95.0615 10.9844 97.3287 10.9844 100.337C10.9844 103.116 11.4515 105.213 12.3857 106.626C13.3656 108.084 14.6416 108.813 16.2139 108.813C17.5127 108.813 18.6178 108.323 19.5293 107.343C20.4407 106.432 21.1357 104.814 21.6142 102.49L23.0156 95.859C24.0866 90.8915 25.75 87.0862 28.0059 84.443C30.3301 81.777 33.6113 80.444 37.8496 80.444C42.4525 80.444 46.0527 82.0846 48.6504 85.3658C51.2936 88.6243 52.6152 93.5917 52.6152 100.268ZM52 62.892L11.668 62.892L11.668 77.3158L2.98632 77.3158L2.98632 38.8295L11.668 38.8295L11.668 53.2191L52 53.2191L52 62.892ZM52 32.5227L2.98632 32.5227L2.98632 22.9523L43.3867 22.9523L43.3867 0.325391L52 0.325391L52 32.5227Z" fill="#33363B"/>
</svg>
